<svg width="20" height="18" viewBox="0 0 20 18" fill="none" xmlns="http://www.w3.org/2000/svg">
<path d="M19.9931 8.76334C19.9931 9.38072 19.4722 9.86433 18.8819 9.86433H17.7708L17.7951 15.359C17.7951 15.4516 17.7882 15.5442 17.7778 15.6368V16.189C17.7778 16.947 17.1562 17.561 16.3889 17.561H15.8333C15.7951 17.561 15.7569 17.561 15.7187 17.5575C15.6701 17.561 15.6215 17.561 15.5729 17.561H14.4444H13.6111C12.8437 17.561 12.2222 16.947 12.2222 16.189V15.3659V13.1707C12.2222 12.5636 11.7257 12.0732 11.1111 12.0732H8.88889C8.27431 12.0732 7.77778 12.5636 7.77778 13.1707V15.3659V16.189C7.77778 16.947 7.15625 17.561 6.38889 17.561H5.55556H4.44792C4.39583 17.561 4.34375 17.5575 4.29167 17.5541C4.25 17.5575 4.20833 17.561 4.16667 17.561H3.61111C2.84375 17.561 2.22222 16.947 2.22222 16.189V12.3476C2.22222 12.3167 2.22222 12.2824 2.22569 12.2515V9.86433H1.11111C0.486111 9.86433 0 9.38415 0 8.76334C0 8.45465 0.104167 8.18026 0.347222 7.94017L9.25 0.27439C9.49305 0.0342988 9.77083 0 10.0139 0C10.2569 0 10.5347 0.0685976 10.7431 0.240091L19.6111 7.94017C19.8889 8.18026 20.0278 8.45465 19.9931 8.76334Z" fill="white"/>
</svg>
