<svg width="176" height="21" viewBox="0 0 176 21" fill="none" xmlns="http://www.w3.org/2000/svg">
<g clip-path="url(#clip0_4_5)">
<path d="M17.6317 20.572V6.07745L11.0307 14.7514H10.2779L3.82164 6.04891V20.572H0V0.599185H4.40068L10.7411 9.1875L17.0816 0.599185H21.4533V20.572H17.6317ZM41.1406 20.5435L39.4324 16.7772H28.836L27.0989 20.5435H22.9588L32.0497 0.570652H36.2188L45.3096 20.5435H41.1406ZM37.898 13.2677L34.1342 4.76495L30.3705 13.2677H37.898ZM63.5493 3.05299L61.1752 5.44973C59.8145 4.16576 57.7879 3.45245 56.0218 3.45245C51.679 3.45245 49.0444 6.70516 49.0444 10.8139C49.0444 14.0951 50.9842 17.4905 56.0218 17.4905C57.6142 17.4905 59.0039 17.1481 60.5962 15.8927V12.3546H55.4138V8.98777H64.0994V17.4049C62.1017 19.659 59.5829 21 56.0218 21C48.4075 21 45.3096 16.0639 45.3096 10.8139C45.3096 5.19294 48.8707 0 56.0218 0C58.7433 0 61.4648 1.02717 63.5493 3.05299ZM71.0478 20.5435H67.2551V0.570652H71.0478V20.5435ZM89.8955 15.4361L92.5011 18.0326C90.4166 20.0584 87.7241 21 84.7999 21C77.2725 21 74.0878 15.8927 74.0588 10.6997C74.0299 5.47826 77.4751 0.171196 84.7999 0.171196C87.5504 0.171196 90.156 1.19837 92.2406 3.22419L89.6928 5.64946C88.361 4.36549 86.566 3.7663 84.7999 3.7663C79.9071 3.7663 77.7936 7.36141 77.8225 10.6997C77.8515 14.0095 79.7913 17.462 84.7999 17.462C86.566 17.462 88.5637 16.7486 89.8955 15.4361ZM112.246 20.572H108.454V12.4973H98.4942V20.572H94.6725V0.599185H98.4942V9.01631H108.454V0.599185H112.246V20.572ZM131.934 20.5435L130.225 16.7772H119.629L117.892 20.5435H113.752L122.843 0.570652H127.012L136.103 20.5435H131.934ZM128.691 13.2677L124.927 4.76495L121.163 13.2677H128.691ZM150.839 12.9538V0.54212H154.661V20.5435H152.287V20.572L141.632 7.07609V20.5435H137.811V0.570652H140.909L150.839 12.9538ZM165.865 0.570652C172.814 0.570652 175.911 5.44973 175.998 10.3859C176.085 15.4361 172.958 20.5435 165.865 20.5435H157.903V0.570652H165.865ZM161.696 4.13723V16.9198H165.865C170.468 16.9198 172.292 13.6101 172.206 10.3573C172.119 7.24728 170.266 4.13723 165.865 4.13723H161.696Z" fill="url(#paint0_linear_4_5)"/>
</g>
<defs>
<linearGradient id="paint0_linear_4_5" x1="0" y1="0" x2="176" y2="0" gradientUnits="userSpaceOnUse">
<stop stop-color="#00DDFF"/>
<stop offset="1" stop-color="#FF00D4"/>
</linearGradient>
<clipPath id="clip0_4_5">
<rect width="176" height="21" fill="white"/>
</clipPath>
</defs>
</svg>
