<svg width="42" height="42" viewBox="0 0 42 42" fill="none" xmlns="http://www.w3.org/2000/svg">
<path d="M14.4375 1.96875C14.4375 0.877734 13.5598 0 12.4688 0C11.3777 0 10.5 0.877734 10.5 1.96875V5.25C7.6043 5.25 5.25 7.6043 5.25 10.5H1.96875C0.877734 10.5 0 11.3777 0 12.4688C0 13.5598 0.877734 14.4375 1.96875 14.4375H5.25V19.0312H1.96875C0.877734 19.0312 0 19.909 0 21C0 22.091 0.877734 22.9688 1.96875 22.9688H5.25V27.5625H1.96875C0.877734 27.5625 0 28.4402 0 29.5312C0 30.6223 0.877734 31.5 1.96875 31.5H5.25C5.25 34.3957 7.6043 36.75 10.5 36.75V40.0312C10.5 41.1223 11.3777 42 12.4688 42C13.5598 42 14.4375 41.1223 14.4375 40.0312V36.75H19.0312V40.0312C19.0312 41.1223 19.909 42 21 42C22.091 42 22.9688 41.1223 22.9688 40.0312V36.75H27.5625V40.0312C27.5625 41.1223 28.4402 42 29.5312 42C30.6223 42 31.5 41.1223 31.5 40.0312V36.75C34.3957 36.75 36.75 34.3957 36.75 31.5H40.0312C41.1223 31.5 42 30.6223 42 29.5312C42 28.4402 41.1223 27.5625 40.0312 27.5625H36.75V22.9688H40.0312C41.1223 22.9688 42 22.091 42 21C42 19.909 41.1223 19.0312 40.0312 19.0312H36.75V14.4375H40.0312C41.1223 14.4375 42 13.5598 42 12.4688C42 11.3777 41.1223 10.5 40.0312 10.5H36.75C36.75 7.6043 34.3957 5.25 31.5 5.25V1.96875C31.5 0.877734 30.6223 0 29.5312 0C28.4402 0 27.5625 0.877734 27.5625 1.96875V5.25H22.9688V1.96875C22.9688 0.877734 22.091 0 21 0C19.909 0 19.0312 0.877734 19.0312 1.96875V5.25H14.4375V1.96875ZM17.0625 14.4375C17.5875 14.4375 18.0551 14.7492 18.2684 15.225L21.7137 23.1L22.8621 25.725C23.1492 26.3895 22.8539 27.1605 22.1895 27.4559C21.525 27.7512 20.7539 27.4395 20.4586 26.7832L19.6465 24.9375H14.4785L13.6746 26.775C13.3875 27.4395 12.6082 27.743 11.9438 27.4477C11.2793 27.1523 10.9758 26.3813 11.2711 25.7168L12.4195 23.0918L15.8648 15.2168C16.0699 14.741 16.5457 14.4293 17.0707 14.4293L17.0625 14.4375ZM18.498 22.3125L17.0625 19.023L15.627 22.3125H18.5063H18.498ZM27.5625 14.4375C28.2844 14.4375 28.875 15.0281 28.875 15.75V26.25C28.875 26.9719 28.2844 27.5625 27.5625 27.5625C26.8406 27.5625 26.25 26.9719 26.25 26.25V15.75C26.25 15.0281 26.8406 14.4375 27.5625 14.4375Z" fill="black"/>
</svg>
