<svg width="350" height="43" viewBox="0 0 350 43" fill="none" xmlns="http://www.w3.org/2000/svg">
<g clip-path="url(#clip0_5_77)">
<path d="M35.063 41.5113V12.2634L21.936 29.7661H20.439L7.59986 12.2058V41.5113H0V1.20907H8.75135L21.3602 18.539L33.9691 1.20907H42.6628V41.5113H35.063ZM81.8136 41.4538L78.4167 33.8539H57.3444L53.8899 41.4538H45.6567L63.7352 1.15149H72.0259L90.1044 41.4538H81.8136ZM75.3653 26.7722L67.8805 9.61497L60.3958 26.7722H75.3653ZM126.376 6.16049L121.655 10.9968C118.949 8.4059 114.919 6.96654 111.407 6.96654C102.771 6.96654 97.5315 13.5301 97.5315 21.8208C97.5315 28.4419 101.389 35.2933 111.407 35.2933C114.574 35.2933 117.337 34.6024 120.504 32.0691V24.9298H110.198V18.136H127.47V35.1206C123.498 39.669 118.489 42.375 111.407 42.375C96.2649 42.375 90.1044 32.4145 90.1044 21.8208C90.1044 10.4786 97.1861 0 111.407 0C116.819 0 122.231 2.07269 126.376 6.16049ZM141.288 41.4538H133.746V1.15149H141.288V41.4538ZM178.769 31.1479L183.951 36.3872C179.806 40.475 174.451 42.375 168.636 42.375C153.667 42.375 147.334 32.0691 147.276 21.5905C147.218 11.0543 154.07 0.345448 168.636 0.345448C174.106 0.345448 179.288 2.41814 183.433 6.50594L178.366 11.3998C175.718 8.80893 172.148 7.59986 168.636 7.59986C158.906 7.59986 154.703 14.8543 154.761 21.5905C154.818 28.2692 158.676 35.2357 168.636 35.2357C172.148 35.2357 176.121 33.7963 178.769 31.1479ZM223.217 41.5113H215.675V25.2177H195.869V41.5113H188.269V1.20907H195.869V18.1936H215.675V1.20907H223.217V41.5113ZM262.368 41.4538L258.971 33.8539H237.899L234.444 41.4538H226.211L244.289 1.15149H252.58L270.659 41.4538H262.368ZM255.919 26.7722L248.435 9.61497L240.95 26.7722H255.919ZM299.964 26.1389V1.09392H307.564V41.4538H302.843V41.5113L281.655 14.2785V41.4538H274.055V1.15149H280.216L299.964 26.1389ZM329.845 1.15149C343.663 1.15149 349.824 10.9968 349.996 20.9572C350.169 31.1479 343.951 41.4538 329.845 41.4538H314.012V1.15149H329.845ZM321.555 8.34833V34.1418H329.845C339 34.1418 342.627 27.4631 342.454 20.8996C342.281 14.624 338.597 8.34833 329.845 8.34833H321.555Z" fill="white"/>
</g>
<defs>
<clipPath id="clip0_5_77">
<rect width="350" height="42.375" fill="white"/>
</clipPath>
</defs>
</svg>
