<svg width="32" height="32" viewBox="0 0 32 32" fill="none" xmlns="http://www.w3.org/2000/svg">
<path d="M20.4688 5.325C20.1875 5.43125 20 5.7 20 6C20 6.3 20.1875 6.56875 20.4688 6.675L24 8L25.325 11.5312C25.4313 11.8125 25.7 12 26 12C26.3 12 26.5687 11.8125 26.675 11.5312L28 8L31.5312 6.675C31.8125 6.56875 32 6.3 32 6C32 5.7 31.8125 5.43125 31.5312 5.325L28 4L26.675 0.46875C26.5687 0.1875 26.3 0 26 0C25.7 0 25.4313 0.1875 25.325 0.46875L24 4L20.4688 5.325ZM12.8188 4.58125C12.6562 4.225 12.3 4 11.9125 4C11.525 4 11.1688 4.225 11.0063 4.58125L7.70625 11.7063L0.58125 15C0.225 15.1625 0 15.5188 0 15.9125C0 16.3062 0.225 16.6562 0.58125 16.8188L7.7125 20.1125L11 27.2375C11.1625 27.5938 11.5188 27.8188 11.9062 27.8188C12.2937 27.8188 12.65 27.5938 12.8125 27.2375L16.1063 20.1063L23.2375 16.8125C23.5938 16.65 23.8188 16.2938 23.8188 15.9062C23.8188 15.5188 23.5938 15.1625 23.2375 15L16.1125 11.7125L12.8188 4.58125ZM24 24L20.4688 25.325C20.1875 25.4313 20 25.7 20 26C20 26.3 20.1875 26.5687 20.4688 26.675L24 28L25.325 31.5312C25.4313 31.8125 25.7 32 26 32C26.3 32 26.5687 31.8125 26.675 31.5312L28 28L31.5312 26.675C31.8125 26.5687 32 26.3 32 26C32 25.7 31.8125 25.4313 31.5312 25.325L28 24L26.675 20.4688C26.5687 20.1875 26.3 20 26 20C25.7 20 25.4313 20.1875 25.325 20.4688L24 24Z" fill="black"/>
</svg>
